<svg width="845" height="500" viewBox="0 0 845 500" fill="none" xmlns="http://www.w3.org/2000/svg">
<rect width="845" height="500" fill="white"/>
<path d="M408.207 349.913C359.993 342.764 323 301.202 323 251C323 195.772 367.772 151 423 151C478.228 151 523 195.772 523 251C523 301.202 486.007 342.764 437.793 349.913V311.385C437.793 306.164 441.284 301.679 445.965 299.366C463.561 290.674 475.663 272.546 475.663 251.592C475.663 222.18 451.82 198.337 422.408 198.337C392.997 198.337 369.154 222.18 369.154 251.592C369.154 272.907 381.677 291.297 399.766 299.807C404.583 302.073 408.207 306.619 408.207 311.942V349.913Z" fill="#FC6A53"/>
<path d="M446.077 251C446.077 263.745 435.745 274.077 423 274.077C410.255 274.077 399.923 263.745 399.923 251C399.923 238.255 410.255 227.923 423 227.923C435.745 227.923 446.077 238.255 446.077 251Z" fill="#FC6A53"/>
</svg>
